<svg width="199" height="38" viewBox="0 0 199 38" fill="none" xmlns="http://www.w3.org/2000/svg">
<path fill-rule="evenodd" clip-rule="evenodd" d="M10.9 33.2271H21.58L10.9 25.1171V33.2271ZM2 13.6471H10.9L21.58 21.7571V13.6471H30.48V4.74707H2V13.6471Z" fill="#03AB02"/>
<path fill-rule="evenodd" clip-rule="evenodd" d="M37.0391 10.4971H51.3991V13.6471H46.0991V27.5971H42.3391V13.6471H37.0391V10.4971ZM120.399 10.5071H124.159V27.6071H120.399V10.5071ZM111.579 10.5071C112.959 10.5071 114.119 10.7571 115.039 11.2471C115.959 11.7471 116.649 12.4071 117.099 13.2271C117.559 14.0471 117.779 14.9471 117.779 15.9271C117.779 16.5971 117.659 17.2471 117.429 17.8971C117.189 18.5371 116.829 19.1271 116.329 19.6571C115.839 20.1771 115.209 20.5971 114.429 20.9071L118.129 27.6071H113.949L110.699 21.3771H107.889V27.6071H104.129V10.5071H111.579ZM113.949 15.9271C113.949 15.2271 113.739 14.6771 113.329 14.2671C112.909 13.8571 112.269 13.6571 111.389 13.6571H107.899V18.2271H111.389C111.979 18.2271 112.459 18.1371 112.829 17.9571C113.199 17.7771 113.489 17.5171 113.669 17.1671C113.859 16.8171 113.949 16.4071 113.949 15.9371V15.9271ZM98.1491 16.0271C97.6791 15.1671 97.0791 14.5371 96.3491 14.1371C95.6291 13.7371 94.8191 13.5371 93.9191 13.5371C92.9791 13.5371 92.1191 13.7771 91.3691 14.2571C90.6091 14.7371 90.0191 15.3971 89.5891 16.2271C89.1591 17.0571 88.9391 18.0071 88.9391 19.0571C88.9391 20.1071 89.1491 21.1271 89.5791 21.9471C89.9991 22.7671 90.5991 23.4171 91.3591 23.8771C92.1291 24.3371 93.0191 24.5771 94.0491 24.5771C94.6891 24.5771 95.2691 24.4671 95.8091 24.2471C96.3491 24.0271 96.8291 23.7171 97.2491 23.3271C97.6691 22.9371 98.0291 22.4871 98.3191 21.9871V21.2071H93.9191V18.2271H101.859V22.6771C101.469 23.5771 100.899 24.4071 100.149 25.1771C99.3991 25.9471 98.4991 26.5771 97.4391 27.0571C96.3791 27.5371 95.1791 27.7771 93.8291 27.7771C92.5591 27.7771 91.3991 27.5671 90.3391 27.1371C89.2791 26.7071 88.3591 26.1071 87.5791 25.3271C86.7991 24.5471 86.1891 23.6171 85.7591 22.5571C85.3291 21.4871 85.1091 20.3171 85.1091 19.0471C85.1091 17.7771 85.3291 16.6071 85.7591 15.5471C86.1891 14.4771 86.7891 13.5571 87.5691 12.7771C88.3391 11.9971 89.2591 11.3971 90.3191 10.9671C91.3791 10.5471 92.5391 10.3271 93.8091 10.3271C94.9991 10.3271 96.1191 10.5171 97.1691 10.8871C98.2191 11.2571 99.1391 11.8071 99.9191 12.5071C100.699 13.2171 101.279 14.0771 101.649 15.0871L98.1591 16.0171L98.1491 16.0271ZM82.8591 10.5071V27.6071H79.0491L72.1091 16.7071V27.6071H68.3491V10.5071H72.1591L79.0691 21.4571V10.5071H82.8591ZM66.0791 13.6571H57.4291V17.5671H63.8991V20.5471H57.4291V24.4571H66.0791V27.6071H53.6691V10.5071H66.0791V13.6571Z" fill="black"/>
<path fill-rule="evenodd" clip-rule="evenodd" d="M145.168 10.5069V27.6069H143.188L134.048 13.6369V27.6069H132.098V10.5069H134.078L143.218 24.4569V10.5069H145.168ZM160.058 12.2169H150.798V18.0569H157.758V19.7669H150.798V25.8969H160.058V27.6069H148.848V10.5069H160.058V12.2169ZM168.818 27.6069H166.668L161.858 10.5069H163.938L167.748 25.2369L171.948 10.5069H174.118L178.298 25.2169L182.138 10.5069H184.188L179.378 27.6069H177.228L173.028 13.4369L168.828 27.6069H168.818ZM187.448 23.2569C187.548 23.6969 187.758 24.1369 188.068 24.5669C188.388 24.9969 188.828 25.3569 189.388 25.6369C189.948 25.9269 190.668 26.0669 191.548 26.0669C192.798 26.0669 193.728 25.7769 194.338 25.1869C194.938 24.5969 195.238 23.9069 195.238 23.1069C195.238 22.4669 195.068 21.9469 194.728 21.5469C194.388 21.1369 193.918 20.7969 193.338 20.5369C192.748 20.2669 192.088 20.0269 191.358 19.8169C190.708 19.6369 190.058 19.4369 189.418 19.2169C188.778 18.9969 188.188 18.7169 187.668 18.3869C187.148 18.0569 186.728 17.6169 186.418 17.0769C186.108 16.5369 185.958 15.8669 185.958 15.0769C185.958 14.1169 186.188 13.2769 186.638 12.5769C187.098 11.8669 187.738 11.3169 188.568 10.9269C189.398 10.5369 190.368 10.3369 191.478 10.3369C192.438 10.3369 193.278 10.4769 193.998 10.7569C194.718 11.0369 195.318 11.4169 195.798 11.9169C196.278 12.4169 196.628 12.9869 196.858 13.6369L195.128 14.2969C195.018 13.9269 194.798 13.5569 194.468 13.2069C194.138 12.8569 193.718 12.5669 193.198 12.3369C192.678 12.1069 192.078 11.9969 191.418 11.9969C190.758 11.9969 190.178 12.1069 189.648 12.3369C189.118 12.5669 188.698 12.8869 188.388 13.3169C188.078 13.7369 187.928 14.2569 187.928 14.8569C187.928 15.5069 188.108 16.0269 188.478 16.4069C188.848 16.7869 189.328 17.0969 189.948 17.3369C190.558 17.5769 191.228 17.7969 191.968 18.0069C192.638 18.2169 193.288 18.4469 193.908 18.6869C194.538 18.9269 195.098 19.2369 195.598 19.5869C196.098 19.9469 196.488 20.3969 196.778 20.9269C197.068 21.4669 197.218 22.1269 197.218 22.9069C197.218 23.7669 197.018 24.5769 196.608 25.3169C196.198 26.0569 195.588 26.6569 194.768 27.0969C193.948 27.5469 192.888 27.7669 191.608 27.7669C190.538 27.7669 189.588 27.5969 188.778 27.2669C187.968 26.9369 187.298 26.4769 186.778 25.9069C186.258 25.3369 185.898 24.6869 185.698 23.9569L187.478 23.2469L187.448 23.2569Z" fill="black"/>
</svg>
